<?xml version="1.0" encoding="utf-8"?>
<!-- Generator: Adobe Illustrator 26.0.2, SVG Export Plug-In . SVG Version: 6.00 Build 0)  -->
<svg version="1.1" id="Layer_1" xmlns="http://www.w3.org/2000/svg" xmlns:xlink="http://www.w3.org/1999/xlink" x="0px" y="0px"
	 viewBox="0 0 322 100" style="enable-background:new 0 0 322 100;" xml:space="preserve">
<style type="text/css">
	.st0{fill:#241F20;}
	.st1{fill:#5B5B5B;}
</style>
<g>
	<path class="st0" d="M130.8,48.2c-2.4-5.5-6.8-9.9-12.3-12.2c-2.8-1.2-5.8-1.8-9-1.8c0,0-0.2,0-0.2,0c-3,0-5.9,0.6-8.7,1.8
		c-2.7,1.2-5.2,2.8-7.3,4.9c-2.1,2.1-3.8,4.5-5,7.3c-2.4,5.7-2.4,12.2,0,17.8c1.2,2.7,2.8,5.2,5,7.2c2.1,2.1,4.6,3.7,7.3,4.9
		c2.8,1.2,5.7,1.8,8.8,1.8h0.3c2.8,0,5.6-0.5,8.3-1.5c2.2-0.8,4.2-2,6-3.4l0,0c0,2.3,1.8,4.1,4.1,4.1h0.5c2.3,0,4.1-1.8,4.1-4.1
		V57.1C132.6,54,132,51,130.8,48.2z M109.6,71.4h-0.1h-0.1c-1.9,0-3.8-0.4-5.5-1.2c-3.5-1.5-6.2-4.2-7.7-7.6
		c-1.5-3.5-1.5-7.6,0-11.1c0.7-1.7,1.8-3.3,3.1-4.6c1.3-1.3,2.9-2.4,4.6-3.1c1.8-0.7,3.6-1.1,5.5-1.1h0.3c1.9,0,3.8,0.4,5.5,1.1
		c1.7,0.7,3.3,1.7,4.6,3.1c1.3,1.3,2.3,2.9,3.1,4.6c2.2,5.4,1,11.5-3,15.7c-1.3,1.3-2.9,2.3-4.6,3.1C113.4,71,111.5,71.4,109.6,71.4
		z"/>
	<path class="st0" d="M303.2,48.2c-2.4-5.5-6.8-9.9-12.3-12.2c-2.8-1.2-5.8-1.8-9-1.8c0,0-0.2,0-0.2,0c-3,0-5.9,0.6-8.7,1.8
		c-2.7,1.2-5.2,2.8-7.3,4.9c-2.1,2.1-3.8,4.5-5,7.3c-2.4,5.7-2.4,12.2,0,17.8c1.2,2.7,2.8,5.2,5,7.2c2.1,2.1,4.6,3.7,7.3,4.9
		c2.8,1.2,5.7,1.8,8.8,1.8h0.3c2.8,0,5.6-0.5,8.3-1.5c2.2-0.8,4.2-2,6-3.4V79h8.7V57.1C305,54,304.4,51,303.2,48.2z M282,71.4h-0.1
		h-0.1c-1.9,0-3.8-0.4-5.5-1.2c-3.5-1.5-6.2-4.2-7.7-7.6c-1.5-3.5-1.5-7.6,0-11.1c0.7-1.7,1.8-3.3,3.1-4.6c1.3-1.3,2.9-2.4,4.6-3.1
		c1.8-0.7,3.6-1.1,5.5-1.1h0.3c1.9,0,3.8,0.4,5.5,1.1c1.7,0.7,3.3,1.7,4.6,3.1c1.3,1.3,2.3,2.9,3.1,4.6c2.2,5.4,1,11.5-3,15.7
		c-1.3,1.3-2.9,2.3-4.6,3.1C285.8,71,283.9,71.4,282,71.4z"/>
	<path class="st0" d="M153.3,78.4c-0.4-0.1-0.7-0.3-1.1-0.5c0.2,0.1,0.5,0.2,0.7,0.3c2.3,1,4.8,1.5,7.6,1.6
		C158.1,79.8,155.7,79.2,153.3,78.4z"/>
	<path class="st0" d="M182.9,48.2c-1.2-2.7-2.8-5.2-5-7.3c-2.1-2.1-4.6-3.7-7.3-4.9c-2.8-1.2-5.7-1.8-8.7-1.8l-0.2,0
		c-3.2,0-6.2,0.6-9,1.8c-1.8,0.8-3.5,1.7-5.1,2.9V23.9c0-1.2-0.5-2.4-1.3-3.2c-0.8-0.8-2-1.3-3.2-1.3c-2.5,0-4.5,2-4.5,4.5v51
		c0,0.4,0.1,0.8,0.2,1.2c0,0.1,0.1,0.2,0.1,0.3c0,0.1,0.1,0.2,0.1,0.2c0,0,0,0.1,0.1,0.1c0,0,0.1,0.1,0.1,0.1c0,0.1,0.1,0.1,0.1,0.2
		c0,0.1,0.1,0.1,0.1,0.2c0.1,0.1,0.2,0.2,0.3,0.3c0.1,0.1,0.1,0.1,0.2,0.2c0,0,0,0,0,0c0,0,0,0,0.1,0c0.7,0.7,1.7,1.2,2.9,1.2h0.5
		c2.3,0,4.1-1.8,4.1-4.1c1.5,1.2,3.2,2.2,4.9,3c0.4,0.2,0.7,0.3,1.1,0.5c2.3,0.9,4.8,1.4,7.2,1.5l0.5,0c0.1,0,0.3,0,0.4,0h0.4
		c3,0,6-0.6,8.8-1.8c2.7-1.2,5.2-2.8,7.3-4.9c2.1-2.1,3.8-4.5,5-7.2C185.3,60.3,185.3,53.8,182.9,48.2z M175.1,62.7
		c-1.5,3.5-4.2,6.2-7.7,7.6c-0.8,0.4-1.6,0.6-2.5,0.8c-1,0.2-2,0.3-3,0.3h-0.2c-1.9,0-3.8-0.4-5.6-1.1c-1.7-0.7-3.3-1.8-4.6-3.1
		c-0.2-0.2-0.4-0.4-0.6-0.6c-3.6-4.1-4.6-9.9-2.5-15.1c0.7-1.7,1.7-3.3,3.1-4.6c1.3-1.3,2.9-2.4,4.6-3.1c1.8-0.7,3.6-1.1,5.5-1.1
		h0.3c1.9,0,3.7,0.4,5.5,1.1c1.7,0.7,3.3,1.7,4.6,3.1c1.3,1.3,2.4,2.9,3.1,4.6C176.6,55.1,176.6,59.1,175.1,62.7z"/>
	<path class="st0" d="M190.3,27.1c-0.9-0.9-1.3-1.9-1.3-3.2c0-1.4,0.4-2.5,1.3-3.3c0.9-0.9,2-1.3,3.3-1.3c1.4,0,2.5,0.4,3.4,1.3
		c0.9,0.9,1.3,2,1.3,3.3c0,1.3-0.4,2.3-1.3,3.2c-0.9,0.9-2,1.3-3.4,1.3C192.3,28.4,191.2,28,190.3,27.1z M193.7,34.2L193.7,34.2
		c2.5,0,4.5,2,4.5,4.5v35.8c0,2.5-2,4.5-4.5,4.5l0,0c-2.5,0-4.5-2-4.5-4.5V38.7C189.2,36.2,191.2,34.2,193.7,34.2z"/>
	<path class="st0" d="M312.4,27.1c-0.9-0.9-1.3-1.9-1.3-3.2c0-1.4,0.4-2.5,1.3-3.3c0.9-0.9,2-1.3,3.3-1.3c1.4,0,2.5,0.4,3.4,1.3
		c0.9,0.9,1.3,2,1.3,3.3c0,1.3-0.4,2.3-1.3,3.2c-0.9,0.9-2,1.3-3.4,1.3C314.4,28.4,313.3,28,312.4,27.1z M311.3,34.2h9V79h-9V34.2z"
		/>
	<path class="st0" d="M248.8,78.2c-1.1-1-1.6-2.3-1.6-3.9s0.5-2.9,1.6-3.9c1.1-1,2.4-1.5,4-1.5s2.9,0.5,4,1.5c1.1,1,1.6,2.3,1.6,3.9
		s-0.5,2.9-1.6,3.9c-1.1,1-2.4,1.5-4,1.5S249.9,79.2,248.8,78.2z"/>
	<path class="st0" d="M86.5,38.1c0,1.8-1.2,3.4-2.8,3.9c0,0,0,0,0,0c-0.1,0-0.3,0.1-0.4,0.1c-2.6,0.7-5.1,2.4-6.6,4.2
		c-1.9,2.3-2.9,5.3-2.9,9.2v19c0,2.5-2,4.5-4.5,4.5c-1.3,0-2.4-0.5-3.2-1.3c-0.8-0.8-1.3-1.9-1.3-3.2V38.3c0-2.2,1.8-4.1,4.1-4.1
		c1.1,0,2.1,0.5,2.9,1.2c0.7,0.7,1.2,1.7,1.2,2.8l0,2.5c1.6-2.4,3.3-4.1,5.3-5.3c0.8-0.5,1.7-0.9,2.6-1.1
		C85.1,33.6,86.5,35.8,86.5,38.1z"/>
	<path class="st0" d="M240.6,69.1c0.8,0.8,1.2,1.8,1.2,3c0,1.2-0.4,2.1-1.2,2.9c-0.3,0.3-0.7,0.6-1.1,0.7c-1.5,1-3.1,1.9-4.8,2.6
		c-2.6,1-5.4,1.5-8.3,1.5h-0.1c-2.8,0-5.7-0.5-8.3-1.5c-3-1.2-5.7-2.9-7.9-5.1c-2.1-2.1-3.8-4.5-5-7.2c-2.4-5.7-2.4-12.2,0-17.8
		c1.2-2.7,2.8-5.2,5-7.3c2.1-2.1,4.6-3.7,7.3-4.9c2.8-1.2,5.7-1.8,8.7-1.8l0.2,0c3.2,0,6.2,0.6,9,1.8c1.8,0.7,3.4,1.7,4.9,2.8
		c0,0,0.1,0,0.1,0.1c0.1,0,0.1,0.1,0.2,0.2c0,0,0.1,0.1,0.1,0.1c0.8,0.8,1.2,1.8,1.2,3c0,1.2-0.4,2.1-1.2,2.9
		c-0.1,0.1-0.1,0.1-0.2,0.2c-0.8,0.7-1.8,1-3,1c-0.5,0-1.1-0.1-1.5-0.2c-0.4-0.1-0.7-0.3-1.1-0.6c-0.2-0.1-0.3-0.2-0.5-0.3
		c-1.4-0.9-3-1.6-4.8-2c-1.1-0.2-2.2-0.3-3.3-0.3h-0.2c-1.9,0-3.7,0.4-5.5,1.1c-1.7,0.7-3.3,1.7-4.6,3.1c-1.3,1.3-2.4,2.9-3.1,4.6
		c-1.5,3.5-1.5,7.6,0,11.1c1.5,3.5,4.2,6.2,7.7,7.6c1.8,0.8,3.6,1.2,5.5,1.2h0.2c1.9,0,3.8-0.4,5.6-1.1c1.1-0.5,2.1-1,3-1.7h0
		c0.7-0.4,1.5-0.7,2.4-0.7c1,0,1.9,0.2,2.6,0.8C240.3,68.8,240.4,68.9,240.6,69.1z"/>
	<g>
		<g>
			<path class="st1" d="M1.8,62.6c-0.7,1.2-1,2.1-1.1,2.4c-1.8,5.2,0,11.1,4.8,13.7c4.6,2.4,10.1,0.8,12.9-3.7
				c3.9-6.4,12-8.4,17.2-4c-5.2-5.4-10.1-9.1-13.1-10.5C15.4,57,8.1,57.1,3.5,60.8C2.9,61.4,2.2,61.9,1.8,62.6z"/>
		</g>
		<path class="st1" d="M37.9,23.7c-3.7-7.8-14.2-7.9-18,0c0,0-6.4,13.8-8.6,18.5c0,0,1.8-3.8,9.8-3.3c2.3,0.1,8.1,0.1,8.1,0.1
			c3.6-0.2,6-1.8,8.1-4.5C41.4,29.1,37.9,23.7,37.9,23.7z"/>
		<g>
			<g>
				<path class="st0" d="M57.1,65c-0.6-1.6-14.6-31.5-18.3-39.5c0.2,2,0.9,5.8-1.4,8.9c-2.1,2.7-4.5,4.2-8.1,4.5c0,0-5.9,0-8.1-0.1
					c-8.1-0.4-9.8,3.3-9.8,3.3c-3.7,8-7.7,16.5-9.5,20.5l0,0c4.3-5.5,12.6-6.1,20.7-2.2c3,1.4,7.8,5,12.9,10.4
					c0.1,0.1,2.5,2.4,4,4.2c4.1,4.8,8.3,6.1,12.9,3.7C57.1,76.2,59.1,70.2,57.1,65z"/>
			</g>
		</g>
	</g>
</g>
</svg>
